  0
SECTION
  2
BLOCKS
  0
ENDSEC
  0
SECTION
  2
ENTITIES
  0
LINE
  8
0
 10
0.596878
 20
-47.4962
 11
1.19366
 21
-47.485
  0
LINE
  8
0
 10
1.19366
 20
-47.485
 11
1.79028
 21
-47.4662
  0
LINE
  8
0
 10
1.79028
 20
-47.4662
 11
2.3866
 21
-47.44
  0
LINE
  8
0
 10
2.3866
 20
-47.44
 11
2.98254
 21
-47.4063
  0
LINE
  8
0
 10
2.98254
 20
-47.4063
 11
3.57802
 21
-47.365
  0
LINE
  8
0
 10
3.57802
 20
-47.365
 11
4.17293
 21
-47.3163
  0
LINE
  8
0
 10
4.17293
 20
-47.3163
 11
4.76718
 21
-47.2602
  0
LINE
  8
0
 10
4.76718
 20
-47.2602
 11
5.36067
 21
-47.1965
  0
LINE
  8
0
 10
5.36067
 20
-47.1965
 11
5.95332
 21
-47.1254
  0
LINE
  8
0
 10
5.95332
 20
-47.1254
 11
6.54503
 21
-47.0469
  0
LINE
  8
0
 10
6.54503
 20
-47.0469
 11
7.13571
 21
-46.961
  0
LINE
  8
0
 10
7.13571
 20
-46.961
 11
7.72525
 21
-46.8676
  0
LINE
  8
0
 10
7.72525
 20
-46.8676
 11
8.31358
 21
-46.7668
  0
LINE
  8
0
 10
8.31358
 20
-46.7668
 11
8.9006
 21
-46.6586
  0
LINE
  8
0
 10
8.9006
 20
-46.6586
 11
9.48622
 21
-46.5431
  0
LINE
  8
0
 10
9.48622
 20
-46.5431
 11
10.0703
 21
-46.4202
  0
LINE
  8
0
 10
10.0703
 20
-46.4202
 11
10.6528
 21
-46.29
  0
LINE
  8
0
 10
10.6528
 20
-46.29
 11
11.2337
 21
-46.1525
  0
LINE
  8
0
 10
11.2337
 20
-46.1525
 11
11.8128
 21
-46.0077
  0
LINE
  8
0
 10
11.8128
 20
-46.0077
 11
12.39
 21
-45.8556
  0
LINE
  8
0
 10
12.39
 20
-45.8556
 11
12.9652
 21
-45.6963
  0
LINE
  8
0
 10
12.9652
 20
-45.6963
 11
13.5384
 21
-45.5298
  0
LINE
  8
0
 10
13.5384
 20
-45.5298
 11
14.1095
 21
-45.3561
  0
LINE
  8
0
 10
14.1095
 20
-45.3561
 11
14.6783
 21
-45.1752
  0
LINE
  8
0
 10
14.6783
 20
-45.1752
 11
15.2448
 21
-44.9872
  0
LINE
  8
0
 10
15.2448
 20
-44.9872
 11
15.8089
 21
-44.792
  0
LINE
  8
0
 10
15.8089
 20
-44.792
 11
16.3705
 21
-44.5899
  0
LINE
  8
0
 10
16.3705
 20
-44.5899
 11
16.9296
 21
-44.3806
  0
LINE
  8
0
 10
16.9296
 20
-44.3806
 11
17.4859
 21
-44.1644
  0
LINE
  8
0
 10
17.4859
 20
-44.1644
 11
18.0395
 21
-43.9412
  0
LINE
  8
0
 10
18.0395
 20
-43.9412
 11
18.5902
 21
-43.711
  0
LINE
  8
0
 10
18.5902
 20
-43.711
 11
19.138
 21
-43.474
  0
LINE
  8
0
 10
19.138
 20
-43.474
 11
19.6828
 21
-43.23
  0
LINE
  8
0
 10
19.6828
 20
-43.23
 11
20.2245
 21
-42.9793
  0
LINE
  8
0
 10
20.2245
 20
-42.9793
 11
20.763
 21
-42.7217
  0
LINE
  8
0
 10
20.763
 20
-42.7217
 11
21.2982
 21
-42.4575
  0
LINE
  8
0
 10
21.2982
 20
-42.4575
 11
21.83
 21
-42.1865
  0
LINE
  8
0
 10
21.83
 20
-42.1865
 11
22.3584
 21
-41.9088
  0
LINE
  8
0
 10
22.3584
 20
-41.9088
 11
22.8833
 21
-41.6246
  0
LINE
  8
0
 10
22.8833
 20
-41.6246
 11
23.4045
 21
-41.3337
  0
LINE
  8
0
 10
23.4045
 20
-41.3337
 11
23.9221
 21
-41.0364
  0
LINE
  8
0
 10
23.9221
 20
-41.0364
 11
24.4359
 21
-40.7325
  0
LINE
  8
0
 10
24.4359
 20
-40.7325
 11
24.9458
 21
-40.4222
  0
LINE
  8
0
 10
24.9458
 20
-40.4222
 11
25.4518
 21
-40.1056
  0
LINE
  8
0
 10
25.4518
 20
-40.1056
 11
25.9537
 21
-39.7826
  0
LINE
  8
0
 10
25.9537
 20
-39.7826
 11
26.4516
 21
-39.4533
  0
LINE
  8
0
 10
26.4516
 20
-39.4533
 11
26.9453
 21
-39.1178
  0
LINE
  8
0
 10
26.9453
 20
-39.1178
 11
27.4347
 21
-38.7761
  0
LINE
  8
0
 10
27.4347
 20
-38.7761
 11
27.9198
 21
-38.4283
  0
LINE
  8
0
 10
27.9198
 20
-38.4283
 11
28.4005
 21
-38.0744
  0
LINE
  8
0
 10
28.4005
 20
-38.0744
 11
28.8767
 21
-37.7145
  0
LINE
  8
0
 10
28.8767
 20
-37.7145
 11
29.3483
 21
-37.3487
  0
LINE
  8
0
 10
29.3483
 20
-37.3487
 11
29.8153
 21
-36.977
  0
LINE
  8
0
 10
29.8153
 20
-36.977
 11
30.2776
 21
-36.5994
  0
LINE
  8
0
 10
30.2776
 20
-36.5994
 11
30.7352
 21
-36.216
  0
LINE
  8
0
 10
30.7352
 20
-36.216
 11
31.1878
 21
-35.8269
  0
LINE
  8
0
 10
31.1878
 20
-35.8269
 11
31.6356
 21
-35.4322
  0
LINE
  8
0
 10
31.6356
 20
-35.4322
 11
32.0783
 21
-35.0319
  0
LINE
  8
0
 10
32.0783
 20
-35.0319
 11
32.516
 21
-34.626
  0
LINE
  8
0
 10
32.516
 20
-34.626
 11
32.9485
 21
-34.2147
  0
LINE
  8
0
 10
32.9485
 20
-34.2147
 11
33.3759
 21
-33.7979
  0
LINE
  8
0
 10
33.3759
 20
-33.7979
 11
33.7979
 21
-33.3759
  0
LINE
  8
0
 10
33.7979
 20
-33.3759
 11
34.2147
 21
-32.9485
  0
LINE
  8
0
 10
34.2147
 20
-32.9485
 11
34.626
 21
-32.516
  0
LINE
  8
0
 10
34.626
 20
-32.516
 11
35.0319
 21
-32.0783
  0
LINE
  8
0
 10
35.0319
 20
-32.0783
 11
35.4322
 21
-31.6356
  0
LINE
  8
0
 10
35.4322
 20
-31.6356
 11
35.8269
 21
-31.1878
  0
LINE
  8
0
 10
35.8269
 20
-31.1878
 11
36.216
 21
-30.7352
  0
LINE
  8
0
 10
36.216
 20
-30.7352
 11
36.5994
 21
-30.2776
  0
LINE
  8
0
 10
36.5994
 20
-30.2776
 11
36.977
 21
-29.8153
  0
LINE
  8
0
 10
36.977
 20
-29.8153
 11
37.3487
 21
-29.3483
  0
LINE
  8
0
 10
37.3487
 20
-29.3483
 11
37.7145
 21
-28.8767
  0
LINE
  8
0
 10
37.7145
 20
-28.8767
 11
38.0744
 21
-28.4005
  0
LINE
  8
0
 10
38.0744
 20
-28.4005
 11
38.4283
 21
-27.9198
  0
LINE
  8
0
 10
38.4283
 20
-27.9198
 11
38.7761
 21
-27.4347
  0
LINE
  8
0
 10
38.7761
 20
-27.4347
 11
39.1178
 21
-26.9453
  0
LINE
  8
0
 10
39.1178
 20
-26.9453
 11
39.4533
 21
-26.4516
  0
LINE
  8
0
 10
39.4533
 20
-26.4516
 11
39.7826
 21
-25.9537
  0
LINE
  8
0
 10
39.7826
 20
-25.9537
 11
40.1056
 21
-25.4518
  0
LINE
  8
0
 10
40.1056
 20
-25.4518
 11
40.4222
 21
-24.9458
  0
LINE
  8
0
 10
40.4222
 20
-24.9458
 11
40.7325
 21
-24.4359
  0
LINE
  8
0
 10
40.7325
 20
-24.4359
 11
41.0364
 21
-23.9221
  0
LINE
  8
0
 10
41.0364
 20
-23.9221
 11
41.3337
 21
-23.4045
  0
LINE
  8
0
 10
41.3337
 20
-23.4045
 11
41.6246
 21
-22.8833
  0
LINE
  8
0
 10
41.6246
 20
-22.8833
 11
41.9088
 21
-22.3584
  0
LINE
  8
0
 10
41.9088
 20
-22.3584
 11
42.1865
 21
-21.83
  0
LINE
  8
0
 10
42.1865
 20
-21.83
 11
42.4575
 21
-21.2982
  0
LINE
  8
0
 10
42.4575
 20
-21.2982
 11
42.7217
 21
-20.763
  0
LINE
  8
0
 10
42.7217
 20
-20.763
 11
42.9793
 21
-20.2245
  0
LINE
  8
0
 10
42.9793
 20
-20.2245
 11
43.23
 21
-19.6828
  0
LINE
  8
0
 10
43.23
 20
-19.6828
 11
43.474
 21
-19.138
  0
LINE
  8
0
 10
43.474
 20
-19.138
 11
43.711
 21
-18.5902
  0
LINE
  8
0
 10
43.711
 20
-18.5902
 11
43.9412
 21
-18.0395
  0
LINE
  8
0
 10
43.9412
 20
-18.0395
 11
44.1644
 21
-17.4859
  0
LINE
  8
0
 10
44.1644
 20
-17.4859
 11
44.3806
 21
-16.9296
  0
LINE
  8
0
 10
44.3806
 20
-16.9296
 11
44.5899
 21
-16.3705
  0
LINE
  8
0
 10
44.5899
 20
-16.3705
 11
44.792
 21
-15.8089
  0
LINE
  8
0
 10
44.792
 20
-15.8089
 11
44.9872
 21
-15.2448
  0
LINE
  8
0
 10
44.9872
 20
-15.2448
 11
45.1752
 21
-14.6783
  0
LINE
  8
0
 10
45.1752
 20
-14.6783
 11
45.3561
 21
-14.1095
  0
LINE
  8
0
 10
45.3561
 20
-14.1095
 11
45.5298
 21
-13.5384
  0
LINE
  8
0
 10
45.5298
 20
-13.5384
 11
45.6963
 21
-12.9652
  0
LINE
  8
0
 10
45.6963
 20
-12.9652
 11
45.8556
 21
-12.39
  0
LINE
  8
0
 10
45.8556
 20
-12.39
 11
46.0077
 21
-11.8128
  0
LINE
  8
0
 10
46.0077
 20
-11.8128
 11
46.1525
 21
-11.2337
  0
LINE
  8
0
 10
46.1525
 20
-11.2337
 11
46.29
 21
-10.6528
  0
LINE
  8
0
 10
46.29
 20
-10.6528
 11
46.4202
 21
-10.0703
  0
LINE
  8
0
 10
46.4202
 20
-10.0703
 11
46.5431
 21
-9.48622
  0
LINE
  8
0
 10
46.5431
 20
-9.48622
 11
46.6586
 21
-8.9006
  0
LINE
  8
0
 10
46.6586
 20
-8.9006
 11
46.7668
 21
-8.31358
  0
LINE
  8
0
 10
46.7668
 20
-8.31358
 11
46.8676
 21
-7.72525
  0
LINE
  8
0
 10
46.8676
 20
-7.72525
 11
46.961
 21
-7.13571
  0
LINE
  8
0
 10
46.961
 20
-7.13571
 11
47.0469
 21
-6.54503
  0
LINE
  8
0
 10
47.0469
 20
-6.54503
 11
47.1254
 21
-5.95332
  0
LINE
  8
0
 10
47.1254
 20
-5.95332
 11
47.1965
 21
-5.36067
  0
LINE
  8
0
 10
47.1965
 20
-5.36067
 11
47.2602
 21
-4.76718
  0
LINE
  8
0
 10
47.2602
 20
-4.76718
 11
47.3163
 21
-4.17293
  0
LINE
  8
0
 10
47.3163
 20
-4.17293
 11
47.365
 21
-3.57802
  0
LINE
  8
0
 10
47.365
 20
-3.57802
 11
47.4063
 21
-2.98254
  0
LINE
  8
0
 10
47.4063
 20
-2.98254
 11
47.44
 21
-2.3866
  0
LINE
  8
0
 10
47.44
 20
-2.3866
 11
47.4662
 21
-1.79028
  0
LINE
  8
0
 10
47.4662
 20
-1.79028
 11
47.485
 21
-1.19366
  0
LINE
  8
0
 10
47.485
 20
-1.19366
 11
47.4962
 21
-0.596878
  0
LINE
  8
0
 10
47.4962
 20
-0.596878
 11
47.5
 21
0
  0
LINE
  8
0
 10
47.5
 20
0
 11
47.4962
 21
0.596878
  0
LINE
  8
0
 10
47.4962
 20
0.596878
 11
47.485
 21
1.19366
  0
LINE
  8
0
 10
47.485
 20
1.19366
 11
47.4662
 21
1.79028
  0
LINE
  8
0
 10
47.4662
 20
1.79028
 11
47.44
 21
2.3866
  0
LINE
  8
0
 10
47.44
 20
2.3866
 11
47.4063
 21
2.98254
  0
LINE
  8
0
 10
47.4063
 20
2.98254
 11
47.365
 21
3.57802
  0
LINE
  8
0
 10
47.365
 20
3.57802
 11
47.3163
 21
4.17293
  0
LINE
  8
0
 10
47.3163
 20
4.17293
 11
47.2602
 21
4.76718
  0
LINE
  8
0
 10
47.2602
 20
4.76718
 11
47.1965
 21
5.36067
  0
LINE
  8
0
 10
47.1965
 20
5.36067
 11
47.1254
 21
5.95332
  0
LINE
  8
0
 10
47.1254
 20
5.95332
 11
47.0469
 21
6.54503
  0
LINE
  8
0
 10
47.0469
 20
6.54503
 11
46.961
 21
7.13571
  0
LINE
  8
0
 10
46.961
 20
7.13571
 11
46.8676
 21
7.72525
  0
LINE
  8
0
 10
46.8676
 20
7.72525
 11
46.7668
 21
8.31358
  0
LINE
  8
0
 10
46.7668
 20
8.31358
 11
46.6586
 21
8.9006
  0
LINE
  8
0
 10
46.6586
 20
8.9006
 11
46.5431
 21
9.48622
  0
LINE
  8
0
 10
46.5431
 20
9.48622
 11
46.4202
 21
10.0703
  0
LINE
  8
0
 10
46.4202
 20
10.0703
 11
46.29
 21
10.6528
  0
LINE
  8
0
 10
46.29
 20
10.6528
 11
46.1525
 21
11.2337
  0
LINE
  8
0
 10
46.1525
 20
11.2337
 11
46.0077
 21
11.8128
  0
LINE
  8
0
 10
46.0077
 20
11.8128
 11
45.8556
 21
12.39
  0
LINE
  8
0
 10
45.8556
 20
12.39
 11
45.6963
 21
12.9652
  0
LINE
  8
0
 10
45.6963
 20
12.9652
 11
45.5298
 21
13.5384
  0
LINE
  8
0
 10
45.5298
 20
13.5384
 11
45.3561
 21
14.1095
  0
LINE
  8
0
 10
45.3561
 20
14.1095
 11
45.1752
 21
14.6783
  0
LINE
  8
0
 10
45.1752
 20
14.6783
 11
44.9872
 21
15.2448
  0
LINE
  8
0
 10
44.9872
 20
15.2448
 11
44.792
 21
15.8089
  0
LINE
  8
0
 10
44.792
 20
15.8089
 11
44.5899
 21
16.3705
  0
LINE
  8
0
 10
44.5899
 20
16.3705
 11
44.3806
 21
16.9296
  0
LINE
  8
0
 10
44.3806
 20
16.9296
 11
44.1644
 21
17.4859
  0
LINE
  8
0
 10
44.1644
 20
17.4859
 11
43.9412
 21
18.0395
  0
LINE
  8
0
 10
43.9412
 20
18.0395
 11
43.711
 21
18.5902
  0
LINE
  8
0
 10
43.711
 20
18.5902
 11
43.474
 21
19.138
  0
LINE
  8
0
 10
43.474
 20
19.138
 11
43.23
 21
19.6828
  0
LINE
  8
0
 10
43.23
 20
19.6828
 11
42.9793
 21
20.2245
  0
LINE
  8
0
 10
42.9793
 20
20.2245
 11
42.7217
 21
20.763
  0
LINE
  8
0
 10
42.7217
 20
20.763
 11
42.4575
 21
21.2982
  0
LINE
  8
0
 10
42.4575
 20
21.2982
 11
42.1865
 21
21.83
  0
LINE
  8
0
 10
42.1865
 20
21.83
 11
41.9088
 21
22.3584
  0
LINE
  8
0
 10
41.9088
 20
22.3584
 11
41.6246
 21
22.8833
  0
LINE
  8
0
 10
41.6246
 20
22.8833
 11
41.3337
 21
23.4045
  0
LINE
  8
0
 10
41.3337
 20
23.4045
 11
41.0364
 21
23.9221
  0
LINE
  8
0
 10
41.0364
 20
23.9221
 11
40.7325
 21
24.4359
  0
LINE
  8
0
 10
40.7325
 20
24.4359
 11
40.4222
 21
24.9458
  0
LINE
  8
0
 10
40.4222
 20
24.9458
 11
40.1056
 21
25.4518
  0
LINE
  8
0
 10
40.1056
 20
25.4518
 11
39.7826
 21
25.9537
  0
LINE
  8
0
 10
39.7826
 20
25.9537
 11
39.4533
 21
26.4516
  0
LINE
  8
0
 10
39.4533
 20
26.4516
 11
39.1178
 21
26.9453
  0
LINE
  8
0
 10
39.1178
 20
26.9453
 11
38.7761
 21
27.4347
  0
LINE
  8
0
 10
38.7761
 20
27.4347
 11
38.4283
 21
27.9198
  0
LINE
  8
0
 10
38.4283
 20
27.9198
 11
38.0744
 21
28.4005
  0
LINE
  8
0
 10
38.0744
 20
28.4005
 11
37.7145
 21
28.8767
  0
LINE
  8
0
 10
37.7145
 20
28.8767
 11
37.3487
 21
29.3483
  0
LINE
  8
0
 10
37.3487
 20
29.3483
 11
36.977
 21
29.8153
  0
LINE
  8
0
 10
36.977
 20
29.8153
 11
36.5994
 21
30.2776
  0
LINE
  8
0
 10
36.5994
 20
30.2776
 11
36.216
 21
30.7352
  0
LINE
  8
0
 10
36.216
 20
30.7352
 11
35.8269
 21
31.1878
  0
LINE
  8
0
 10
35.8269
 20
31.1878
 11
35.4322
 21
31.6356
  0
LINE
  8
0
 10
35.4322
 20
31.6356
 11
35.0319
 21
32.0783
  0
LINE
  8
0
 10
35.0319
 20
32.0783
 11
34.626
 21
32.516
  0
LINE
  8
0
 10
34.626
 20
32.516
 11
34.2147
 21
32.9485
  0
LINE
  8
0
 10
34.2147
 20
32.9485
 11
33.7979
 21
33.3759
  0
LINE
  8
0
 10
33.7979
 20
33.3759
 11
33.3759
 21
33.7979
  0
LINE
  8
0
 10
33.3759
 20
33.7979
 11
32.9485
 21
34.2147
  0
LINE
  8
0
 10
32.9485
 20
34.2147
 11
32.516
 21
34.626
  0
LINE
  8
0
 10
32.516
 20
34.626
 11
32.0783
 21
35.0319
  0
LINE
  8
0
 10
32.0783
 20
35.0319
 11
31.6356
 21
35.4322
  0
LINE
  8
0
 10
31.6356
 20
35.4322
 11
31.1878
 21
35.8269
  0
LINE
  8
0
 10
31.1878
 20
35.8269
 11
30.7352
 21
36.216
  0
LINE
  8
0
 10
30.7352
 20
36.216
 11
30.2776
 21
36.5994
  0
LINE
  8
0
 10
30.2776
 20
36.5994
 11
29.8153
 21
36.977
  0
LINE
  8
0
 10
29.8153
 20
36.977
 11
29.3483
 21
37.3487
  0
LINE
  8
0
 10
29.3483
 20
37.3487
 11
28.8767
 21
37.7145
  0
LINE
  8
0
 10
28.8767
 20
37.7145
 11
28.4005
 21
38.0744
  0
LINE
  8
0
 10
28.4005
 20
38.0744
 11
27.9198
 21
38.4283
  0
LINE
  8
0
 10
27.9198
 20
38.4283
 11
27.4347
 21
38.7761
  0
LINE
  8
0
 10
27.4347
 20
38.7761
 11
26.9453
 21
39.1178
  0
LINE
  8
0
 10
26.9453
 20
39.1178
 11
26.4516
 21
39.4533
  0
LINE
  8
0
 10
26.4516
 20
39.4533
 11
25.9537
 21
39.7826
  0
LINE
  8
0
 10
25.9537
 20
39.7826
 11
25.4518
 21
40.1056
  0
LINE
  8
0
 10
25.4518
 20
40.1056
 11
24.9458
 21
40.4222
  0
LINE
  8
0
 10
24.9458
 20
40.4222
 11
24.4359
 21
40.7325
  0
LINE
  8
0
 10
24.4359
 20
40.7325
 11
23.9221
 21
41.0364
  0
LINE
  8
0
 10
23.9221
 20
41.0364
 11
23.4045
 21
41.3337
  0
LINE
  8
0
 10
23.4045
 20
41.3337
 11
22.8833
 21
41.6246
  0
LINE
  8
0
 10
22.8833
 20
41.6246
 11
22.3584
 21
41.9088
  0
LINE
  8
0
 10
22.3584
 20
41.9088
 11
21.83
 21
42.1865
  0
LINE
  8
0
 10
21.83
 20
42.1865
 11
21.2982
 21
42.4575
  0
LINE
  8
0
 10
21.2982
 20
42.4575
 11
20.763
 21
42.7217
  0
LINE
  8
0
 10
20.763
 20
42.7217
 11
20.2245
 21
42.9793
  0
LINE
  8
0
 10
20.2245
 20
42.9793
 11
19.6828
 21
43.23
  0
LINE
  8
0
 10
19.6828
 20
43.23
 11
19.138
 21
43.474
  0
LINE
  8
0
 10
19.138
 20
43.474
 11
18.5902
 21
43.711
  0
LINE
  8
0
 10
18.5902
 20
43.711
 11
18.0395
 21
43.9412
  0
LINE
  8
0
 10
18.0395
 20
43.9412
 11
17.4859
 21
44.1644
  0
LINE
  8
0
 10
17.4859
 20
44.1644
 11
16.9296
 21
44.3806
  0
LINE
  8
0
 10
16.9296
 20
44.3806
 11
16.3705
 21
44.5899
  0
LINE
  8
0
 10
16.3705
 20
44.5899
 11
15.8089
 21
44.792
  0
LINE
  8
0
 10
15.8089
 20
44.792
 11
15.2448
 21
44.9872
  0
LINE
  8
0
 10
15.2448
 20
44.9872
 11
14.6783
 21
45.1752
  0
LINE
  8
0
 10
14.6783
 20
45.1752
 11
14.1095
 21
45.3561
  0
LINE
  8
0
 10
14.1095
 20
45.3561
 11
13.5384
 21
45.5298
  0
LINE
  8
0
 10
13.5384
 20
45.5298
 11
12.9652
 21
45.6963
  0
LINE
  8
0
 10
12.9652
 20
45.6963
 11
12.39
 21
45.8556
  0
LINE
  8
0
 10
12.39
 20
45.8556
 11
11.8128
 21
46.0077
  0
LINE
  8
0
 10
11.8128
 20
46.0077
 11
11.2337
 21
46.1525
  0
LINE
  8
0
 10
11.2337
 20
46.1525
 11
10.6528
 21
46.29
  0
LINE
  8
0
 10
10.6528
 20
46.29
 11
10.0703
 21
46.4202
  0
LINE
  8
0
 10
10.0703
 20
46.4202
 11
9.48622
 21
46.5431
  0
LINE
  8
0
 10
9.48622
 20
46.5431
 11
8.9006
 21
46.6586
  0
LINE
  8
0
 10
8.9006
 20
46.6586
 11
8.31358
 21
46.7668
  0
LINE
  8
0
 10
8.31358
 20
46.7668
 11
7.72525
 21
46.8676
  0
LINE
  8
0
 10
7.72525
 20
46.8676
 11
7.13571
 21
46.961
  0
LINE
  8
0
 10
7.13571
 20
46.961
 11
6.54503
 21
47.0469
  0
LINE
  8
0
 10
6.54503
 20
47.0469
 11
5.95332
 21
47.1254
  0
LINE
  8
0
 10
5.95332
 20
47.1254
 11
5.36067
 21
47.1965
  0
LINE
  8
0
 10
5.36067
 20
47.1965
 11
4.76718
 21
47.2602
  0
LINE
  8
0
 10
4.76718
 20
47.2602
 11
4.17293
 21
47.3163
  0
LINE
  8
0
 10
4.17293
 20
47.3163
 11
3.57802
 21
47.365
  0
LINE
  8
0
 10
3.57802
 20
47.365
 11
2.98254
 21
47.4063
  0
LINE
  8
0
 10
2.98254
 20
47.4063
 11
2.3866
 21
47.44
  0
LINE
  8
0
 10
2.3866
 20
47.44
 11
1.79028
 21
47.4662
  0
LINE
  8
0
 10
1.79028
 20
47.4662
 11
1.19366
 21
47.485
  0
LINE
  8
0
 10
1.19366
 20
47.485
 11
0.596878
 21
47.4962
  0
LINE
  8
0
 10
0.596878
 20
47.4962
 11
0
 21
47.5
  0
LINE
  8
0
 10
0
 20
47.5
 11
-0.596878
 21
47.4962
  0
LINE
  8
0
 10
-0.596878
 20
47.4962
 11
-1.19366
 21
47.485
  0
LINE
  8
0
 10
-1.19366
 20
47.485
 11
-1.79028
 21
47.4662
  0
LINE
  8
0
 10
-1.79028
 20
47.4662
 11
-2.3866
 21
47.44
  0
LINE
  8
0
 10
-2.3866
 20
47.44
 11
-2.98254
 21
47.4063
  0
LINE
  8
0
 10
-2.98254
 20
47.4063
 11
-3.57802
 21
47.365
  0
LINE
  8
0
 10
-3.57802
 20
47.365
 11
-4.17293
 21
47.3163
  0
LINE
  8
0
 10
-4.17293
 20
47.3163
 11
-4.76718
 21
47.2602
  0
LINE
  8
0
 10
-4.76718
 20
47.2602
 11
-5.36067
 21
47.1965
  0
LINE
  8
0
 10
-5.36067
 20
47.1965
 11
-5.95332
 21
47.1254
  0
LINE
  8
0
 10
-5.95332
 20
47.1254
 11
-6.54503
 21
47.0469
  0
LINE
  8
0
 10
-6.54503
 20
47.0469
 11
-7.13571
 21
46.961
  0
LINE
  8
0
 10
-7.13571
 20
46.961
 11
-7.72525
 21
46.8676
  0
LINE
  8
0
 10
-7.72525
 20
46.8676
 11
-8.31358
 21
46.7668
  0
LINE
  8
0
 10
-8.31358
 20
46.7668
 11
-8.9006
 21
46.6586
  0
LINE
  8
0
 10
-8.9006
 20
46.6586
 11
-9.48622
 21
46.5431
  0
LINE
  8
0
 10
-9.48622
 20
46.5431
 11
-10.0703
 21
46.4202
  0
LINE
  8
0
 10
-10.0703
 20
46.4202
 11
-10.6528
 21
46.29
  0
LINE
  8
0
 10
-10.6528
 20
46.29
 11
-11.2337
 21
46.1525
  0
LINE
  8
0
 10
-11.2337
 20
46.1525
 11
-11.8128
 21
46.0077
  0
LINE
  8
0
 10
-11.8128
 20
46.0077
 11
-12.39
 21
45.8556
  0
LINE
  8
0
 10
-12.39
 20
45.8556
 11
-12.9652
 21
45.6963
  0
LINE
  8
0
 10
-12.9652
 20
45.6963
 11
-13.5384
 21
45.5298
  0
LINE
  8
0
 10
-13.5384
 20
45.5298
 11
-14.1095
 21
45.3561
  0
LINE
  8
0
 10
-14.1095
 20
45.3561
 11
-14.6783
 21
45.1752
  0
LINE
  8
0
 10
-14.6783
 20
45.1752
 11
-15.2448
 21
44.9872
  0
LINE
  8
0
 10
-15.2448
 20
44.9872
 11
-15.8089
 21
44.792
  0
LINE
  8
0
 10
-15.8089
 20
44.792
 11
-16.3705
 21
44.5899
  0
LINE
  8
0
 10
-16.3705
 20
44.5899
 11
-16.9296
 21
44.3806
  0
LINE
  8
0
 10
-16.9296
 20
44.3806
 11
-17.4859
 21
44.1644
  0
LINE
  8
0
 10
-17.4859
 20
44.1644
 11
-18.0395
 21
43.9412
  0
LINE
  8
0
 10
-18.0395
 20
43.9412
 11
-18.5902
 21
43.711
  0
LINE
  8
0
 10
-18.5902
 20
43.711
 11
-19.138
 21
43.474
  0
LINE
  8
0
 10
-19.138
 20
43.474
 11
-19.6828
 21
43.23
  0
LINE
  8
0
 10
-19.6828
 20
43.23
 11
-20.2245
 21
42.9793
  0
LINE
  8
0
 10
-20.2245
 20
42.9793
 11
-20.763
 21
42.7217
  0
LINE
  8
0
 10
-20.763
 20
42.7217
 11
-21.2982
 21
42.4575
  0
LINE
  8
0
 10
-21.2982
 20
42.4575
 11
-21.83
 21
42.1865
  0
LINE
  8
0
 10
-21.83
 20
42.1865
 11
-22.3584
 21
41.9088
  0
LINE
  8
0
 10
-22.3584
 20
41.9088
 11
-22.8833
 21
41.6246
  0
LINE
  8
0
 10
-22.8833
 20
41.6246
 11
-23.4045
 21
41.3337
  0
LINE
  8
0
 10
-23.4045
 20
41.3337
 11
-23.9221
 21
41.0364
  0
LINE
  8
0
 10
-23.9221
 20
41.0364
 11
-24.4359
 21
40.7325
  0
LINE
  8
0
 10
-24.4359
 20
40.7325
 11
-24.9458
 21
40.4222
  0
LINE
  8
0
 10
-24.9458
 20
40.4222
 11
-25.4518
 21
40.1056
  0
LINE
  8
0
 10
-25.4518
 20
40.1056
 11
-25.9537
 21
39.7826
  0
LINE
  8
0
 10
-25.9537
 20
39.7826
 11
-26.4516
 21
39.4533
  0
LINE
  8
0
 10
-26.4516
 20
39.4533
 11
-26.9453
 21
39.1178
  0
LINE
  8
0
 10
-26.9453
 20
39.1178
 11
-27.4347
 21
38.7761
  0
LINE
  8
0
 10
-27.4347
 20
38.7761
 11
-27.9198
 21
38.4283
  0
LINE
  8
0
 10
-27.9198
 20
38.4283
 11
-28.4005
 21
38.0744
  0
LINE
  8
0
 10
-28.4005
 20
38.0744
 11
-28.8767
 21
37.7145
  0
LINE
  8
0
 10
-28.8767
 20
37.7145
 11
-29.3483
 21
37.3487
  0
LINE
  8
0
 10
-29.3483
 20
37.3487
 11
-29.8153
 21
36.977
  0
LINE
  8
0
 10
-29.8153
 20
36.977
 11
-30.2776
 21
36.5994
  0
LINE
  8
0
 10
-30.2776
 20
36.5994
 11
-30.7352
 21
36.216
  0
LINE
  8
0
 10
-30.7352
 20
36.216
 11
-31.1878
 21
35.8269
  0
LINE
  8
0
 10
-31.1878
 20
35.8269
 11
-31.6356
 21
35.4322
  0
LINE
  8
0
 10
-31.6356
 20
35.4322
 11
-32.0783
 21
35.0319
  0
LINE
  8
0
 10
-32.0783
 20
35.0319
 11
-32.516
 21
34.626
  0
LINE
  8
0
 10
-32.516
 20
34.626
 11
-32.9485
 21
34.2147
  0
LINE
  8
0
 10
-32.9485
 20
34.2147
 11
-33.3759
 21
33.7979
  0
LINE
  8
0
 10
-33.3759
 20
33.7979
 11
-33.7979
 21
33.3759
  0
LINE
  8
0
 10
-33.7979
 20
33.3759
 11
-34.2147
 21
32.9485
  0
LINE
  8
0
 10
-34.2147
 20
32.9485
 11
-34.626
 21
32.516
  0
LINE
  8
0
 10
-34.626
 20
32.516
 11
-35.0319
 21
32.0783
  0
LINE
  8
0
 10
-35.0319
 20
32.0783
 11
-35.4322
 21
31.6356
  0
LINE
  8
0
 10
-35.4322
 20
31.6356
 11
-35.8269
 21
31.1878
  0
LINE
  8
0
 10
-35.8269
 20
31.1878
 11
-36.216
 21
30.7352
  0
LINE
  8
0
 10
-36.216
 20
30.7352
 11
-36.5994
 21
30.2776
  0
LINE
  8
0
 10
-36.5994
 20
30.2776
 11
-36.977
 21
29.8153
  0
LINE
  8
0
 10
-36.977
 20
29.8153
 11
-37.3487
 21
29.3483
  0
LINE
  8
0
 10
-37.3487
 20
29.3483
 11
-37.7145
 21
28.8767
  0
LINE
  8
0
 10
-37.7145
 20
28.8767
 11
-38.0744
 21
28.4005
  0
LINE
  8
0
 10
-38.0744
 20
28.4005
 11
-38.4283
 21
27.9198
  0
LINE
  8
0
 10
-38.4283
 20
27.9198
 11
-38.7761
 21
27.4347
  0
LINE
  8
0
 10
-38.7761
 20
27.4347
 11
-39.1178
 21
26.9453
  0
LINE
  8
0
 10
-39.1178
 20
26.9453
 11
-39.4533
 21
26.4516
  0
LINE
  8
0
 10
-39.4533
 20
26.4516
 11
-39.7826
 21
25.9537
  0
LINE
  8
0
 10
-39.7826
 20
25.9537
 11
-40.1056
 21
25.4518
  0
LINE
  8
0
 10
-40.1056
 20
25.4518
 11
-40.4222
 21
24.9458
  0
LINE
  8
0
 10
-40.4222
 20
24.9458
 11
-40.7325
 21
24.4359
  0
LINE
  8
0
 10
-40.7325
 20
24.4359
 11
-41.0364
 21
23.9221
  0
LINE
  8
0
 10
-41.0364
 20
23.9221
 11
-41.3337
 21
23.4045
  0
LINE
  8
0
 10
-41.3337
 20
23.4045
 11
-41.6246
 21
22.8833
  0
LINE
  8
0
 10
-41.6246
 20
22.8833
 11
-41.9088
 21
22.3584
  0
LINE
  8
0
 10
-41.9088
 20
22.3584
 11
-42.1865
 21
21.83
  0
LINE
  8
0
 10
-42.1865
 20
21.83
 11
-42.4575
 21
21.2982
  0
LINE
  8
0
 10
-42.4575
 20
21.2982
 11
-42.7217
 21
20.763
  0
LINE
  8
0
 10
-42.7217
 20
20.763
 11
-42.9793
 21
20.2245
  0
LINE
  8
0
 10
-42.9793
 20
20.2245
 11
-43.23
 21
19.6828
  0
LINE
  8
0
 10
-43.23
 20
19.6828
 11
-43.474
 21
19.138
  0
LINE
  8
0
 10
-43.474
 20
19.138
 11
-43.711
 21
18.5902
  0
LINE
  8
0
 10
-43.711
 20
18.5902
 11
-43.9412
 21
18.0395
  0
LINE
  8
0
 10
-43.9412
 20
18.0395
 11
-44.1644
 21
17.4859
  0
LINE
  8
0
 10
-44.1644
 20
17.4859
 11
-44.3806
 21
16.9296
  0
LINE
  8
0
 10
-44.3806
 20
16.9296
 11
-44.5899
 21
16.3705
  0
LINE
  8
0
 10
-44.5899
 20
16.3705
 11
-44.792
 21
15.8089
  0
LINE
  8
0
 10
-44.792
 20
15.8089
 11
-44.9872
 21
15.2448
  0
LINE
  8
0
 10
-44.9872
 20
15.2448
 11
-45.1752
 21
14.6783
  0
LINE
  8
0
 10
-45.1752
 20
14.6783
 11
-45.3561
 21
14.1095
  0
LINE
  8
0
 10
-45.3561
 20
14.1095
 11
-45.5298
 21
13.5384
  0
LINE
  8
0
 10
-45.5298
 20
13.5384
 11
-45.6963
 21
12.9652
  0
LINE
  8
0
 10
-45.6963
 20
12.9652
 11
-45.8556
 21
12.39
  0
LINE
  8
0
 10
-45.8556
 20
12.39
 11
-46.0077
 21
11.8128
  0
LINE
  8
0
 10
-46.0077
 20
11.8128
 11
-46.1525
 21
11.2337
  0
LINE
  8
0
 10
-46.1525
 20
11.2337
 11
-46.29
 21
10.6528
  0
LINE
  8
0
 10
-46.29
 20
10.6528
 11
-46.4202
 21
10.0703
  0
LINE
  8
0
 10
-46.4202
 20
10.0703
 11
-46.5431
 21
9.48622
  0
LINE
  8
0
 10
-46.5431
 20
9.48622
 11
-46.6586
 21
8.9006
  0
LINE
  8
0
 10
-46.6586
 20
8.9006
 11
-46.7668
 21
8.31358
  0
LINE
  8
0
 10
-46.7668
 20
8.31358
 11
-46.8676
 21
7.72525
  0
LINE
  8
0
 10
-46.8676
 20
7.72525
 11
-46.961
 21
7.13571
  0
LINE
  8
0
 10
-46.961
 20
7.13571
 11
-47.0469
 21
6.54503
  0
LINE
  8
0
 10
-47.0469
 20
6.54503
 11
-47.1254
 21
5.95332
  0
LINE
  8
0
 10
-47.1254
 20
5.95332
 11
-47.1965
 21
5.36067
  0
LINE
  8
0
 10
-47.1965
 20
5.36067
 11
-47.2602
 21
4.76718
  0
LINE
  8
0
 10
-47.2602
 20
4.76718
 11
-47.3163
 21
4.17293
  0
LINE
  8
0
 10
-47.3163
 20
4.17293
 11
-47.365
 21
3.57802
  0
LINE
  8
0
 10
-47.365
 20
3.57802
 11
-47.4063
 21
2.98254
  0
LINE
  8
0
 10
-47.4063
 20
2.98254
 11
-47.44
 21
2.3866
  0
LINE
  8
0
 10
-47.44
 20
2.3866
 11
-47.4662
 21
1.79028
  0
LINE
  8
0
 10
-47.4662
 20
1.79028
 11
-47.485
 21
1.19366
  0
LINE
  8
0
 10
-47.485
 20
1.19366
 11
-47.4962
 21
0.596878
  0
LINE
  8
0
 10
-47.4962
 20
0.596878
 11
-47.5
 21
0
  0
LINE
  8
0
 10
-47.5
 20
0
 11
-47.4962
 21
-0.596878
  0
LINE
  8
0
 10
-47.4962
 20
-0.596878
 11
-47.485
 21
-1.19366
  0
LINE
  8
0
 10
-47.485
 20
-1.19366
 11
-47.4662
 21
-1.79028
  0
LINE
  8
0
 10
-47.4662
 20
-1.79028
 11
-47.44
 21
-2.3866
  0
LINE
  8
0
 10
-47.44
 20
-2.3866
 11
-47.4063
 21
-2.98254
  0
LINE
  8
0
 10
-47.4063
 20
-2.98254
 11
-47.365
 21
-3.57802
  0
LINE
  8
0
 10
-47.365
 20
-3.57802
 11
-47.3163
 21
-4.17293
  0
LINE
  8
0
 10
-47.3163
 20
-4.17293
 11
-47.2602
 21
-4.76718
  0
LINE
  8
0
 10
-47.2602
 20
-4.76718
 11
-47.1965
 21
-5.36067
  0
LINE
  8
0
 10
-47.1965
 20
-5.36067
 11
-47.1254
 21
-5.95332
  0
LINE
  8
0
 10
-47.1254
 20
-5.95332
 11
-47.0469
 21
-6.54503
  0
LINE
  8
0
 10
-47.0469
 20
-6.54503
 11
-46.961
 21
-7.13571
  0
LINE
  8
0
 10
-46.961
 20
-7.13571
 11
-46.8676
 21
-7.72525
  0
LINE
  8
0
 10
-46.8676
 20
-7.72525
 11
-46.7668
 21
-8.31358
  0
LINE
  8
0
 10
-46.7668
 20
-8.31358
 11
-46.6586
 21
-8.9006
  0
LINE
  8
0
 10
-46.6586
 20
-8.9006
 11
-46.5431
 21
-9.48622
  0
LINE
  8
0
 10
-46.5431
 20
-9.48622
 11
-46.4202
 21
-10.0703
  0
LINE
  8
0
 10
-46.4202
 20
-10.0703
 11
-46.29
 21
-10.6528
  0
LINE
  8
0
 10
-46.29
 20
-10.6528
 11
-46.1525
 21
-11.2337
  0
LINE
  8
0
 10
-46.1525
 20
-11.2337
 11
-46.0077
 21
-11.8128
  0
LINE
  8
0
 10
-46.0077
 20
-11.8128
 11
-45.8556
 21
-12.39
  0
LINE
  8
0
 10
-45.8556
 20
-12.39
 11
-45.6963
 21
-12.9652
  0
LINE
  8
0
 10
-45.6963
 20
-12.9652
 11
-45.5298
 21
-13.5384
  0
LINE
  8
0
 10
-45.5298
 20
-13.5384
 11
-45.3561
 21
-14.1095
  0
LINE
  8
0
 10
-45.3561
 20
-14.1095
 11
-45.1752
 21
-14.6783
  0
LINE
  8
0
 10
-45.1752
 20
-14.6783
 11
-44.9872
 21
-15.2448
  0
LINE
  8
0
 10
-44.9872
 20
-15.2448
 11
-44.792
 21
-15.8089
  0
LINE
  8
0
 10
-44.792
 20
-15.8089
 11
-44.5899
 21
-16.3705
  0
LINE
  8
0
 10
-44.5899
 20
-16.3705
 11
-44.3806
 21
-16.9296
  0
LINE
  8
0
 10
-44.3806
 20
-16.9296
 11
-44.1644
 21
-17.4859
  0
LINE
  8
0
 10
-44.1644
 20
-17.4859
 11
-43.9412
 21
-18.0395
  0
LINE
  8
0
 10
-43.9412
 20
-18.0395
 11
-43.711
 21
-18.5902
  0
LINE
  8
0
 10
-43.711
 20
-18.5902
 11
-43.474
 21
-19.138
  0
LINE
  8
0
 10
-43.474
 20
-19.138
 11
-43.23
 21
-19.6828
  0
LINE
  8
0
 10
-43.23
 20
-19.6828
 11
-42.9793
 21
-20.2245
  0
LINE
  8
0
 10
-42.9793
 20
-20.2245
 11
-42.7217
 21
-20.763
  0
LINE
  8
0
 10
-42.7217
 20
-20.763
 11
-42.4575
 21
-21.2982
  0
LINE
  8
0
 10
-42.4575
 20
-21.2982
 11
-42.1865
 21
-21.83
  0
LINE
  8
0
 10
-42.1865
 20
-21.83
 11
-41.9088
 21
-22.3584
  0
LINE
  8
0
 10
-41.9088
 20
-22.3584
 11
-41.6246
 21
-22.8833
  0
LINE
  8
0
 10
-41.6246
 20
-22.8833
 11
-41.3337
 21
-23.4045
  0
LINE
  8
0
 10
-41.3337
 20
-23.4045
 11
-41.0364
 21
-23.9221
  0
LINE
  8
0
 10
-41.0364
 20
-23.9221
 11
-40.7325
 21
-24.4359
  0
LINE
  8
0
 10
-40.7325
 20
-24.4359
 11
-40.4222
 21
-24.9458
  0
LINE
  8
0
 10
-40.4222
 20
-24.9458
 11
-40.1056
 21
-25.4518
  0
LINE
  8
0
 10
-40.1056
 20
-25.4518
 11
-39.7826
 21
-25.9537
  0
LINE
  8
0
 10
-39.7826
 20
-25.9537
 11
-39.4533
 21
-26.4516
  0
LINE
  8
0
 10
-39.4533
 20
-26.4516
 11
-39.1178
 21
-26.9453
  0
LINE
  8
0
 10
-39.1178
 20
-26.9453
 11
-38.7761
 21
-27.4347
  0
LINE
  8
0
 10
-38.7761
 20
-27.4347
 11
-38.4283
 21
-27.9198
  0
LINE
  8
0
 10
-38.4283
 20
-27.9198
 11
-38.0744
 21
-28.4005
  0
LINE
  8
0
 10
-38.0744
 20
-28.4005
 11
-37.7145
 21
-28.8767
  0
LINE
  8
0
 10
-37.7145
 20
-28.8767
 11
-37.3487
 21
-29.3483
  0
LINE
  8
0
 10
-37.3487
 20
-29.3483
 11
-36.977
 21
-29.8153
  0
LINE
  8
0
 10
-36.977
 20
-29.8153
 11
-36.5994
 21
-30.2776
  0
LINE
  8
0
 10
-36.5994
 20
-30.2776
 11
-36.216
 21
-30.7352
  0
LINE
  8
0
 10
-36.216
 20
-30.7352
 11
-35.8269
 21
-31.1878
  0
LINE
  8
0
 10
-35.8269
 20
-31.1878
 11
-35.4322
 21
-31.6356
  0
LINE
  8
0
 10
-35.4322
 20
-31.6356
 11
-35.0319
 21
-32.0783
  0
LINE
  8
0
 10
-35.0319
 20
-32.0783
 11
-34.626
 21
-32.516
  0
LINE
  8
0
 10
-34.626
 20
-32.516
 11
-34.2147
 21
-32.9485
  0
LINE
  8
0
 10
-34.2147
 20
-32.9485
 11
-33.7979
 21
-33.3759
  0
LINE
  8
0
 10
-33.7979
 20
-33.3759
 11
-33.3759
 21
-33.7979
  0
LINE
  8
0
 10
-33.3759
 20
-33.7979
 11
-32.9485
 21
-34.2147
  0
LINE
  8
0
 10
-32.9485
 20
-34.2147
 11
-32.516
 21
-34.626
  0
LINE
  8
0
 10
-32.516
 20
-34.626
 11
-32.0783
 21
-35.0319
  0
LINE
  8
0
 10
-32.0783
 20
-35.0319
 11
-31.6356
 21
-35.4322
  0
LINE
  8
0
 10
-31.6356
 20
-35.4322
 11
-31.1878
 21
-35.8269
  0
LINE
  8
0
 10
-31.1878
 20
-35.8269
 11
-30.7352
 21
-36.216
  0
LINE
  8
0
 10
-30.7352
 20
-36.216
 11
-30.2776
 21
-36.5994
  0
LINE
  8
0
 10
-30.2776
 20
-36.5994
 11
-29.8153
 21
-36.977
  0
LINE
  8
0
 10
-29.8153
 20
-36.977
 11
-29.3483
 21
-37.3487
  0
LINE
  8
0
 10
-29.3483
 20
-37.3487
 11
-28.8767
 21
-37.7145
  0
LINE
  8
0
 10
-28.8767
 20
-37.7145
 11
-28.4005
 21
-38.0744
  0
LINE
  8
0
 10
-28.4005
 20
-38.0744
 11
-27.9198
 21
-38.4283
  0
LINE
  8
0
 10
-27.9198
 20
-38.4283
 11
-27.4347
 21
-38.7761
  0
LINE
  8
0
 10
-27.4347
 20
-38.7761
 11
-26.9453
 21
-39.1178
  0
LINE
  8
0
 10
-26.9453
 20
-39.1178
 11
-26.4516
 21
-39.4533
  0
LINE
  8
0
 10
-26.4516
 20
-39.4533
 11
-25.9537
 21
-39.7826
  0
LINE
  8
0
 10
-25.9537
 20
-39.7826
 11
-25.4518
 21
-40.1056
  0
LINE
  8
0
 10
-25.4518
 20
-40.1056
 11
-24.9458
 21
-40.4222
  0
LINE
  8
0
 10
-24.9458
 20
-40.4222
 11
-24.4359
 21
-40.7325
  0
LINE
  8
0
 10
-24.4359
 20
-40.7325
 11
-23.9221
 21
-41.0364
  0
LINE
  8
0
 10
-23.9221
 20
-41.0364
 11
-23.4045
 21
-41.3337
  0
LINE
  8
0
 10
-23.4045
 20
-41.3337
 11
-22.8833
 21
-41.6246
  0
LINE
  8
0
 10
-22.8833
 20
-41.6246
 11
-22.3584
 21
-41.9088
  0
LINE
  8
0
 10
-22.3584
 20
-41.9088
 11
-21.83
 21
-42.1865
  0
LINE
  8
0
 10
-21.83
 20
-42.1865
 11
-21.2982
 21
-42.4575
  0
LINE
  8
0
 10
-21.2982
 20
-42.4575
 11
-20.763
 21
-42.7217
  0
LINE
  8
0
 10
-20.763
 20
-42.7217
 11
-20.2245
 21
-42.9793
  0
LINE
  8
0
 10
-20.2245
 20
-42.9793
 11
-19.6828
 21
-43.23
  0
LINE
  8
0
 10
-19.6828
 20
-43.23
 11
-19.138
 21
-43.474
  0
LINE
  8
0
 10
-19.138
 20
-43.474
 11
-18.5902
 21
-43.711
  0
LINE
  8
0
 10
-18.5902
 20
-43.711
 11
-18.0395
 21
-43.9412
  0
LINE
  8
0
 10
-18.0395
 20
-43.9412
 11
-17.4859
 21
-44.1644
  0
LINE
  8
0
 10
-17.4859
 20
-44.1644
 11
-16.9296
 21
-44.3806
  0
LINE
  8
0
 10
-16.9296
 20
-44.3806
 11
-16.3705
 21
-44.5899
  0
LINE
  8
0
 10
-16.3705
 20
-44.5899
 11
-15.8089
 21
-44.792
  0
LINE
  8
0
 10
-15.8089
 20
-44.792
 11
-15.2448
 21
-44.9872
  0
LINE
  8
0
 10
-15.2448
 20
-44.9872
 11
-14.6783
 21
-45.1752
  0
LINE
  8
0
 10
-14.6783
 20
-45.1752
 11
-14.1095
 21
-45.3561
  0
LINE
  8
0
 10
-14.1095
 20
-45.3561
 11
-13.5384
 21
-45.5298
  0
LINE
  8
0
 10
-13.5384
 20
-45.5298
 11
-12.9652
 21
-45.6963
  0
LINE
  8
0
 10
-12.9652
 20
-45.6963
 11
-12.39
 21
-45.8556
  0
LINE
  8
0
 10
-12.39
 20
-45.8556
 11
-11.8128
 21
-46.0077
  0
LINE
  8
0
 10
-11.8128
 20
-46.0077
 11
-11.2337
 21
-46.1525
  0
LINE
  8
0
 10
-11.2337
 20
-46.1525
 11
-10.6528
 21
-46.29
  0
LINE
  8
0
 10
-10.6528
 20
-46.29
 11
-10.0703
 21
-46.4202
  0
LINE
  8
0
 10
-10.0703
 20
-46.4202
 11
-9.48622
 21
-46.5431
  0
LINE
  8
0
 10
-9.48622
 20
-46.5431
 11
-8.9006
 21
-46.6586
  0
LINE
  8
0
 10
-8.9006
 20
-46.6586
 11
-8.31358
 21
-46.7668
  0
LINE
  8
0
 10
-8.31358
 20
-46.7668
 11
-7.72525
 21
-46.8676
  0
LINE
  8
0
 10
-7.72525
 20
-46.8676
 11
-7.13571
 21
-46.961
  0
LINE
  8
0
 10
-7.13571
 20
-46.961
 11
-6.54503
 21
-47.0469
  0
LINE
  8
0
 10
-6.54503
 20
-47.0469
 11
-5.95332
 21
-47.1254
  0
LINE
  8
0
 10
-5.95332
 20
-47.1254
 11
-5.36067
 21
-47.1965
  0
LINE
  8
0
 10
-5.36067
 20
-47.1965
 11
-4.76718
 21
-47.2602
  0
LINE
  8
0
 10
-4.76718
 20
-47.2602
 11
-4.17293
 21
-47.3163
  0
LINE
  8
0
 10
-4.17293
 20
-47.3163
 11
-3.57802
 21
-47.365
  0
LINE
  8
0
 10
-3.57802
 20
-47.365
 11
-2.98254
 21
-47.4063
  0
LINE
  8
0
 10
-2.98254
 20
-47.4063
 11
-2.3866
 21
-47.44
  0
LINE
  8
0
 10
-2.3866
 20
-47.44
 11
-1.79028
 21
-47.4662
  0
LINE
  8
0
 10
-1.79028
 20
-47.4662
 11
-1.19366
 21
-47.485
  0
LINE
  8
0
 10
-1.19366
 20
-47.485
 11
-0.596878
 21
-47.4962
  0
LINE
  8
0
 10
-0.596878
 20
-47.4962
 11
0
 21
-47.5
  0
LINE
  8
0
 10
0
 20
-47.5
 11
0.596878
 21
-47.4962
  0
LINE
  8
0
 10
-30
 20
-17.5
 11
-30
 21
17.5
  0
LINE
  8
0
 10
-30
 20
17.5
 11
30
 21
17.5
  0
LINE
  8
0
 10
30
 20
17.5
 11
30
 21
-17.5
  0
LINE
  8
0
 10
30
 20
-17.5
 11
-30
 21
-17.5
  0
ENDSEC
  0
SECTION
  2
OBJECTS
  0
DICTIONARY
  0
ENDSEC
  0
EOF
